<svg width="48" height="48" viewBox="0 0 48 48" fill="none" xmlns="http://www.w3.org/2000/svg">
<path d="M43.5465 21.7886V11.0994C43.5465 8.74284 41.6292 6.82556 39.2726 6.82556H8.72738C6.37078 6.82556 4.4535 8.74284 4.4535 11.0994V21.7886C1.88888 22.4986 0 24.8517 0 27.6391V35.7609C0 36.5479 0.638062 37.1859 1.425 37.1859H4.4535V39.7494C4.4535 40.5364 5.09156 41.1744 5.8785 41.1744C6.66544 41.1744 7.3035 40.5364 7.3035 39.7494V37.1859H40.6965V39.7494C40.6965 40.5364 41.3346 41.1744 42.1215 41.1744C42.9084 41.1744 43.5465 40.5364 43.5465 39.7494V37.1859H46.575C47.3619 37.1859 48 36.5479 48 35.7609V27.6391C48 24.8517 46.111 22.4986 43.5465 21.7886ZM7.3035 11.0994C7.3035 10.3144 7.94231 9.67556 8.72738 9.67556H39.2727C40.0578 9.67556 40.6966 10.3144 40.6966 11.0994V21.5681H37.3577V18.7077C37.3577 16.2204 35.3342 14.1969 32.8469 14.1969H27.0859C25.893 14.1969 24.8076 14.6632 24.0001 15.4221C23.1926 14.6632 22.1072 14.1969 20.9143 14.1969H15.1533C12.666 14.1969 10.6425 16.2205 10.6425 18.7077V21.5681H7.3035V11.0994ZM34.5077 18.7077V21.5681H25.425V18.7077C25.425 17.7919 26.1701 17.0469 27.0858 17.0469H32.8468C33.7627 17.0469 34.5077 17.792 34.5077 18.7077ZM22.5749 18.7077V21.5681H13.4922V18.7077C13.4922 17.7919 14.2373 17.0469 15.153 17.0469H20.914C21.8299 17.0469 22.5749 17.792 22.5749 18.7077ZM45.15 34.3359H2.85V27.6391C2.85 25.8631 4.29488 24.4181 6.07097 24.4181H41.929C43.705 24.4181 45.15 25.863 45.15 27.6391V34.3359Z" fill="#1C3360"/>
</svg>
