<svg width="48" height="48" viewBox="0 0 48 48" fill="none" xmlns="http://www.w3.org/2000/svg">
<path d="M36.1933 0H11.8067C9.45572 0 7.54303 1.91278 7.54303 4.26375V40.6538C7.54303 43.0047 9.45572 44.9175 11.8067 44.9175H12.3363V46.5813C12.3363 47.3647 12.9715 48 13.755 48C14.5385 48 15.1737 47.3647 15.1737 46.5813V44.9175H32.8269V46.5813C32.8269 47.3647 33.4622 48 34.2457 48C35.0291 48 35.6644 47.3647 35.6644 46.5813V44.9175H36.1934C38.5444 44.9175 40.4571 43.0047 40.4571 40.6538V4.26375C40.457 1.91278 38.5443 0 36.1933 0ZM10.3804 4.26375C10.3804 3.47728 11.0202 2.83734 11.8067 2.83734H22.5816V33.458H10.3804V4.26375ZM37.6196 40.6538C37.6196 41.4402 36.9798 42.0802 36.1933 42.0802H11.8067C11.0202 42.0802 10.3804 41.4402 10.3804 40.6538V36.2955H37.6195V40.6538H37.6196ZM37.6196 33.4581H25.419V2.83744H36.1933C36.9798 2.83744 37.6196 3.47738 37.6196 4.26384V33.4581Z" fill="#1C3360"/>
<path d="M20.2331 14.7612C19.4497 14.7612 18.8144 15.3965 18.8144 16.1799V20.1156C18.8144 20.899 19.4496 21.5343 20.2331 21.5343C21.0166 21.5343 21.6518 20.899 21.6518 20.1156V16.1799C21.6518 15.3964 21.0167 14.7612 20.2331 14.7612Z" fill="#1C3360"/>
<path d="M27.7674 14.7612C26.984 14.7612 26.3487 15.3965 26.3487 16.1799V20.1156C26.3487 20.8991 26.984 21.5344 27.7674 21.5344C28.5509 21.5344 29.1862 20.8991 29.1862 20.1157V16.1799C29.1862 15.3964 28.5509 14.7612 27.7674 14.7612Z" fill="#1C3360"/>
<path d="M25.6079 37.7691H22.3922C21.6087 37.7691 20.9735 38.4043 20.9735 39.1878C20.9735 39.9712 21.6087 40.6065 22.3922 40.6065H25.6079C26.3914 40.6065 27.0266 39.9712 27.0266 39.1878C27.0265 38.4042 26.3914 37.7691 25.6079 37.7691Z" fill="#1C3360"/>
</svg>
