<svg width="48" height="48" viewBox="0 0 48 48" fill="none" xmlns="http://www.w3.org/2000/svg">
<g clip-path="url(#clip0)">
<path d="M28.445 32.7574C25.994 30.3063 22.006 30.3063 19.555 32.7574C17.104 35.2084 17.104 39.1964 19.555 41.6474C20.7805 42.8729 22.3902 43.4857 24 43.4857C25.6097 43.4857 27.2195 42.8729 28.4449 41.6474C30.896 39.1964 30.896 35.2084 28.445 32.7574ZM26.3933 39.5955C25.0736 40.9151 22.9264 40.9151 21.6069 39.5955C20.2873 38.2759 20.2873 36.1287 21.6069 34.8091C22.2667 34.1494 23.1334 33.8195 24.0002 33.8195C24.8669 33.8195 25.7335 34.1494 26.3934 34.8091C27.7128 36.1287 27.7128 38.2758 26.3933 39.5955Z" fill="#1C3360"/>
<path d="M38.5264 23.3282C30.5166 15.3183 17.4835 15.3183 9.47361 23.3282C9.20155 23.6003 9.04865 23.9692 9.04865 24.354C9.04865 24.7388 9.20155 25.1078 9.47361 25.3799L13.9005 29.8067C14.1725 30.0788 14.5415 30.2317 14.9263 30.2317C15.3111 30.2317 15.6801 30.0788 15.9522 29.8067C18.0978 27.661 20.9559 26.4793 23.9999 26.4793C27.0438 26.4793 29.9019 27.6609 32.0476 29.8067C32.3198 30.0788 32.6887 30.2317 33.0735 30.2317C33.4583 30.2317 33.8274 30.0788 34.0993 29.8067L38.5262 25.3799C38.7983 25.1078 38.9512 24.7388 38.9512 24.354C38.9514 23.9693 38.7984 23.6003 38.5264 23.3282ZM33.0223 26.7805C30.4836 24.7058 27.33 23.5777 24 23.5777C20.67 23.5777 17.5164 24.7058 14.9777 26.7805L12.593 24.3959C19.1508 18.83 28.8492 18.83 35.407 24.3959L33.0223 26.7805Z" fill="#1C3360"/>
<path d="M47.575 14.2795C41.278 7.98243 32.9055 4.51443 24 4.51443C15.0945 4.51443 6.72205 7.98243 0.424968 14.2796C-0.141656 14.8462 -0.141656 15.7648 0.424968 16.3314L4.85193 20.7583C5.41855 21.3249 6.33721 21.3249 6.90374 20.7583C16.3307 11.3314 31.6695 11.3314 41.0965 20.7583C41.3797 21.0417 41.751 21.1832 42.1223 21.1832C42.4935 21.1832 42.8648 21.0416 43.1481 20.7583L47.5749 16.3314C48.1417 15.7647 48.1417 14.8461 47.575 14.2795ZM42.0952 17.7077C31.8348 8.48099 16.1656 8.48099 5.90502 17.7077L3.52659 15.3292C9.14033 10.2153 16.3549 7.41609 24 7.41609C31.6452 7.41609 38.8597 10.2153 44.4735 15.3292L42.0952 17.7077Z" fill="#1C3360"/>
</g>
<defs>
<clipPath id="clip0">
<rect width="48" height="48" fill="white"/>
</clipPath>
</defs>
</svg>
