<svg width="48" height="48" viewBox="0 0 48 48" fill="none" xmlns="http://www.w3.org/2000/svg">
<path d="M38.2117 19.5056L35.2685 1.1971C35.1576 0.507376 34.5623 0 33.8637 0H14.1363C13.4376 0 12.8422 0.507376 12.7313 1.1971L9.78824 19.5055C9.72215 19.9171 9.83962 20.3369 10.1101 20.6542C10.3805 20.9715 10.7763 21.1543 11.1932 21.1543H20.0533V45.154H17.0742C16.2883 45.154 15.6513 45.7912 15.6513 46.577C15.6513 47.3628 16.2884 47.9999 17.0742 47.9999H30.9253C31.7112 47.9999 32.3482 47.3628 32.3482 46.577C32.3482 45.7912 31.7111 45.154 30.9253 45.154H27.9468V21.1544H30.5121V26.8414C30.5121 27.6273 31.1492 28.2644 31.935 28.2644C32.7209 28.2644 33.358 27.6272 33.358 26.8414V21.1544H36.8069C37.2238 21.1544 37.6196 20.9715 37.89 20.6543C38.1602 20.337 38.2778 19.9171 38.2117 19.5056ZM25.1006 45.1541H22.8993V21.1544H25.1006V45.1541ZM12.8632 18.3084L15.3488 2.84597H32.6511L35.1368 18.3085H12.8632V18.3084Z" fill="#1C3360"/>
</svg>
