<svg width="28" height="27" viewBox="0 0 28 27" fill="none" xmlns="http://www.w3.org/2000/svg">
<path d="M13.0517 0.864778C13.3546 -0.0491776 14.6474 -0.0491759 14.9502 0.86478L17.5214 8.62455C17.657 9.03376 18.0396 9.31001 18.4707 9.31001H26.7489C27.7224 9.31001 28.122 10.5596 27.3292 11.1245L20.6659 15.8717C20.3085 16.1263 20.1588 16.5841 20.2969 17.0007L22.8499 24.7058C23.1541 25.6236 22.108 26.3958 21.3205 25.8347L14.5812 21.0334C14.234 20.786 13.768 20.786 13.4207 21.0334L6.6815 25.8347C5.89397 26.3958 4.84787 25.6236 5.15201 24.7058L7.7051 17.0007C7.84311 16.5841 7.69347 16.1263 7.33609 15.8717L0.67277 11.1245C-0.120061 10.5596 0.279552 9.31001 1.25302 9.31001H9.53128C9.96237 9.31001 10.3449 9.03375 10.4805 8.62455L13.0517 0.864778Z" fill="#FFCC47"/>
</svg>
