<svg width="48" height="48" viewBox="0 0 48 48" fill="none" xmlns="http://www.w3.org/2000/svg">
<path d="M46.5719 3.64529H1.42809C0.639375 3.64529 0 4.28466 0 5.07338V35.6437C0 36.4324 0.639375 37.0718 1.42809 37.0718H17.1371V41.4985H11.904C11.1153 41.4985 10.4759 42.1379 10.4759 42.9266C10.4759 43.7154 11.1153 44.3547 11.904 44.3547H36.0968C36.8855 44.3547 37.5248 43.7154 37.5248 42.9266C37.5248 42.1379 36.8855 41.4985 36.0968 41.4985H30.8636V37.0718H46.5719C47.3606 37.0718 48 36.4324 48 35.6437V5.07338C48 4.28466 47.3606 3.64529 46.5719 3.64529ZM28.0072 41.4985H19.9932V37.0718H28.0072V41.4985ZM45.1438 34.2156H2.85619V31.7832H45.1437V34.2156H45.1438ZM45.1438 28.9269H2.85619V6.50147H45.1437V28.9269H45.1438Z" fill="#1C3360"/>
</svg>
