<svg width="48" height="48" viewBox="0 0 48 48" fill="none" xmlns="http://www.w3.org/2000/svg">
<g clip-path="url(#clip0)">
<path d="M46.403 10.9962C45.4449 9.99239 44.1217 9.39923 42.616 9.39923H35.0418V9.30798C35.0418 8.16729 34.5856 7.07224 33.8099 6.3422C33.0342 5.56653 31.9848 5.11026 30.8441 5.11026H17.1559C15.9696 5.11026 14.9202 5.56653 14.1445 6.3422C13.3688 7.11786 12.9125 8.16729 12.9125 9.30798V9.39923H5.38403C3.87833 9.39923 2.55513 9.99239 1.59696 10.9962C0.638783 11.9544 0 13.3232 0 14.7833V37.5057C0 39.0114 0.593156 40.3346 1.59696 41.2928C2.55513 42.2509 3.92395 42.8897 5.38403 42.8897H42.616C44.1217 42.8897 45.4449 42.2966 46.403 41.2928C47.3612 40.3346 48 38.9658 48 37.5057V14.7833C48 13.2776 47.4068 11.9544 46.403 10.9962ZM45.6274 37.5057H45.5817C45.5817 38.327 45.2624 39.057 44.7148 39.6045C44.1673 40.1521 43.4373 40.4715 42.616 40.4715H5.38403C4.56274 40.4715 3.8327 40.1521 3.28517 39.6045C2.73764 39.057 2.41825 38.327 2.41825 37.5057V14.7833C2.41825 13.962 2.73764 13.2319 3.28517 12.6844C3.8327 12.1369 4.56274 11.8175 5.38403 11.8175H14.1901C14.8745 11.8175 15.4221 11.27 15.4221 10.5855V9.26235C15.4221 8.76045 15.6046 8.30418 15.924 7.98478C16.2433 7.66539 16.6996 7.48288 17.2015 7.48288H30.8441C31.346 7.48288 31.8023 7.66539 32.1217 7.98478C32.4411 8.30418 32.6236 8.76045 32.6236 9.26235V10.5855C32.6236 11.27 33.1711 11.8175 33.8555 11.8175H42.6616C43.4829 11.8175 44.2129 12.1369 44.7605 12.6844C45.308 13.2319 45.6274 13.962 45.6274 14.7833V37.5057Z" fill="#1C3360"/>
<path d="M24 14.9201C20.8973 14.9201 18.0684 16.1977 16.0608 18.2053C14.0076 20.2585 12.7757 23.0418 12.7757 26.1445C12.7757 29.2471 14.0532 32.076 16.0608 34.0836C18.1141 36.1369 20.8973 37.3688 24 37.3688C27.1027 37.3688 29.9316 36.0912 31.9392 34.0836C33.9924 32.0304 35.2243 29.2471 35.2243 26.1445C35.2243 23.0418 33.9468 20.2129 31.9392 18.2053C29.9316 16.1977 27.1027 14.9201 24 14.9201ZM30.2053 32.3954C28.6084 33.9468 26.4183 34.9506 24 34.9506C21.5818 34.9506 19.3916 33.9468 17.7947 32.3954C16.1977 30.7985 15.2395 28.6084 15.2395 26.1901C15.2395 23.7719 16.2433 21.5817 17.7947 19.9848C19.3916 18.3878 21.5818 17.4296 24 17.4296C26.4183 17.4296 28.6084 18.4335 30.2053 19.9848C31.8023 21.5817 32.7605 23.7719 32.7605 26.1901C32.8061 28.6084 31.8023 30.7985 30.2053 32.3954Z" fill="#1C3360"/>
<path d="M40.2433 19.346C41.4781 19.346 42.4791 18.345 42.4791 17.1103C42.4791 15.8755 41.4781 14.8745 40.2433 14.8745C39.0086 14.8745 38.0076 15.8755 38.0076 17.1103C38.0076 18.345 39.0086 19.346 40.2433 19.346Z" fill="#1C3360"/>
</g>
<defs>
<clipPath id="clip0">
<rect width="48" height="48" fill="white"/>
</clipPath>
</defs>
</svg>
