<svg width="32" height="32" viewBox="0 0 32 32" fill="none" xmlns="http://www.w3.org/2000/svg">
<path d="M28.5714 3.42857H25.1429V1.14288C25.1429 0.511674 24.6312 0 24 0C23.3688 0 22.8571 0.511674 22.8571 1.14288V3.42857H9.14283V1.14288C9.14283 0.511674 8.63115 0 8.00002 0C7.36888 0 6.85714 0.511674 6.85714 1.14288V3.42857H3.42857C1.53502 3.42857 0 4.96359 0 6.85714V28.5714C0 30.465 1.53502 32 3.42857 32H28.5714C30.465 32 32 30.465 32 28.5714V6.85714C32 4.96359 30.465 3.42857 28.5714 3.42857ZM29.7142 28.5714C29.7142 29.2026 29.2026 29.7143 28.5714 29.7143H3.42857C2.79736 29.7143 2.28569 29.2026 2.28569 28.5714V13.7143H29.7142V28.5714ZM29.7142 11.4286H2.28569V6.85714C2.28569 6.22593 2.79736 5.71426 3.42857 5.71426H6.85714V7.99995C6.85714 8.63115 7.36881 9.14283 8.00002 9.14283C8.63122 9.14283 9.1429 8.63115 9.1429 7.99995V5.71426H22.8572V7.99995C22.8572 8.63115 23.3688 9.14283 24.0001 9.14283C24.6313 9.14283 25.1429 8.63115 25.1429 7.99995V5.71426H28.5715C29.2027 5.71426 29.7144 6.22593 29.7144 6.85714V11.4286H29.7142Z" fill="white"/>
<path d="M9.14282 16H6.85713C6.22592 16 5.71425 16.5116 5.71425 17.1428C5.71425 17.7741 6.22592 18.2857 6.85713 18.2857H9.14282C9.77403 18.2857 10.2857 17.7741 10.2857 17.1428C10.2857 16.5116 9.77403 16 9.14282 16Z" fill="white"/>
<path d="M17.1428 16H14.8572C14.226 16 13.7143 16.5116 13.7143 17.1428C13.7143 17.7741 14.226 18.2857 14.8572 18.2857H17.1428C17.7741 18.2857 18.2857 17.7741 18.2857 17.1428C18.2857 16.5116 17.7741 16 17.1428 16Z" fill="white"/>
<path d="M25.1429 16H22.8572C22.226 16 21.7143 16.5116 21.7143 17.1428C21.7143 17.7741 22.226 18.2857 22.8572 18.2857H25.1429C25.7741 18.2857 26.2857 17.7741 26.2857 17.1428C26.2857 16.5116 25.774 16 25.1429 16Z" fill="white"/>
<path d="M9.14282 20.5714H6.85713C6.22592 20.5714 5.71425 21.0831 5.71425 21.7143C5.71425 22.3455 6.22592 22.8572 6.85713 22.8572H9.14282C9.77403 22.8572 10.2857 22.3455 10.2857 21.7143C10.2857 21.0831 9.77403 20.5714 9.14282 20.5714Z" fill="white"/>
<path d="M17.1428 20.5714H14.8572C14.226 20.5714 13.7143 21.0831 13.7143 21.7143C13.7143 22.3455 14.226 22.8572 14.8572 22.8572H17.1428C17.7741 22.8572 18.2857 22.3455 18.2857 21.7143C18.2857 21.0831 17.7741 20.5714 17.1428 20.5714Z" fill="white"/>
<path d="M25.1429 20.5714H22.8572C22.226 20.5714 21.7143 21.0831 21.7143 21.7143C21.7143 22.3455 22.226 22.8572 22.8572 22.8572H25.1429C25.7741 22.8572 26.2857 22.3455 26.2857 21.7143C26.2857 21.0831 25.774 20.5714 25.1429 20.5714Z" fill="white"/>
<path d="M9.14282 25.1429H6.85713C6.22592 25.1429 5.71425 25.6545 5.71425 26.2857C5.71425 26.917 6.22592 27.4286 6.85713 27.4286H9.14282C9.77403 27.4286 10.2857 26.9169 10.2857 26.2857C10.2857 25.6545 9.77403 25.1429 9.14282 25.1429Z" fill="white"/>
<path d="M17.1428 25.1429H14.8572C14.226 25.1429 13.7143 25.6545 13.7143 26.2857C13.7143 26.917 14.226 27.4286 14.8572 27.4286H17.1428C17.7741 27.4286 18.2857 26.917 18.2857 26.2857C18.2857 25.6545 17.7741 25.1429 17.1428 25.1429Z" fill="white"/>
<path d="M25.1429 25.1429H22.8572C22.226 25.1429 21.7143 25.6545 21.7143 26.2857C21.7143 26.917 22.226 27.4286 22.8572 27.4286H25.1429C25.7741 27.4286 26.2857 26.917 26.2857 26.2857C26.2857 25.6545 25.774 25.1429 25.1429 25.1429Z" fill="white"/>
</svg>
