<svg width="48" height="48" viewBox="0 0 48 48" fill="none" xmlns="http://www.w3.org/2000/svg">
<g clip-path="url(#clip0)">
<path d="M37.0896 16.4247L34.6877 1.212C34.5775 0.514032 33.9759 0 33.2694 0H14.7306C14.0241 0 13.4224 0.514032 13.3123 1.212L10.9104 16.4248C10.3051 20.2585 11.404 24.1495 13.9254 27.1003C16.1333 29.6841 19.2237 31.303 22.5642 31.6655V45.1283H16.2368C15.4437 45.1283 14.8009 45.7712 14.8009 46.5642C14.8009 47.3573 15.4437 48.0001 16.2368 48.0001H31.7633C32.5563 48.0001 33.1992 47.3572 33.1992 46.5642C33.1992 45.7713 32.5563 45.1283 31.7633 45.1283H25.4358V31.6654C28.7762 31.3028 31.8667 29.6841 34.0746 27.1002C36.596 24.1495 37.6949 20.2584 37.0896 16.4247ZM15.9575 2.87176H32.0424L33.2806 10.7135H14.7194L15.9575 2.87176ZM31.8914 25.2346C29.9163 27.546 27.0401 28.8715 24 28.8715C20.96 28.8715 18.0837 27.5459 16.1086 25.2346C14.1336 22.9233 13.2729 19.8755 13.747 16.8725L14.266 13.5852H33.7339L34.2529 16.8725C34.7271 19.8755 33.8663 22.9234 31.8914 25.2346Z" fill="#1C3360"/>
</g>
<defs>
<clipPath id="clip0">
<rect width="48" height="48" fill="white"/>
</clipPath>
</defs>
</svg>
