<svg width="48" height="48" viewBox="0 0 48 48" fill="none" xmlns="http://www.w3.org/2000/svg">
<g clip-path="url(#clip0)">
<path d="M24 22.9926C28.3388 22.9926 31.8686 19.4632 31.8686 15.125C31.8686 10.7868 28.3388 7.25748 24 7.25748C19.6613 7.25748 16.1314 10.7868 16.1314 15.125C16.1314 19.4632 19.6613 22.9926 24 22.9926V22.9926ZM24 10.0696C26.7879 10.0696 29.0561 12.3375 29.0561 15.125C29.0561 17.9125 26.788 20.1804 24 20.1804C21.212 20.1804 18.9439 17.9125 18.9439 15.125C18.9439 12.3375 21.2121 10.0696 24 10.0696V10.0696Z" fill="#1C3360"/>
<path d="M15.4324 29.2623C17.5638 32.1476 16.7075 31.0255 22.8467 39.7907C23.4047 40.5905 24.5913 40.5942 25.1525 39.7919C31.3194 30.9851 30.4709 32.1006 32.5676 29.2622C34.6915 26.3867 36.8879 23.4133 38.0915 19.929C39.8334 14.8852 39.0804 9.89456 35.9714 5.87644C35.9713 5.87644 35.9713 5.87634 35.9712 5.87634C33.1233 2.19675 28.648 0 24 0C19.352 0 14.8767 2.19675 12.0287 5.87653C8.91966 9.89466 8.16666 14.8853 9.90872 19.9292C11.1121 23.4134 13.3085 26.3868 15.4324 29.2623V29.2623ZM14.253 7.59741C16.5722 4.60106 20.216 2.81213 24 2.81213C27.784 2.81213 31.4278 4.60106 33.747 7.59741L33.7468 7.59731C36.2562 10.8403 36.8549 14.8939 35.4329 19.0112C34.3699 22.0888 32.3035 24.8862 30.3053 27.5916C28.7494 29.6978 29.215 29.0536 24 36.529C18.7904 29.0611 19.2502 29.6972 17.6948 27.5916C15.6965 24.8862 13.6301 22.0887 12.5671 19.0112C11.1451 14.8938 11.7438 10.8403 14.253 7.59741V7.59741Z" fill="#1C3360"/>
<path d="M16.5874 35.3594C16.1726 34.703 15.3041 34.5067 14.6475 34.9216L10.6491 37.4469C9.77681 37.9978 9.77596 39.273 10.6491 39.8244L23.2491 47.7827C23.7078 48.0725 24.2924 48.0724 24.751 47.7827L37.351 39.8244C38.2234 39.2736 38.2241 37.9984 37.351 37.4469L33.3526 34.9216C32.6958 34.5068 31.8274 34.703 31.4127 35.3594C30.9979 36.0159 31.194 36.8843 31.8506 37.2991L33.9669 38.6357L24 44.9308L14.0332 38.6357L16.1495 37.2991C16.8061 36.8844 17.0021 36.016 16.5874 35.3594V35.3594Z" fill="#1C3360"/>
</g>
<defs>
<clipPath id="clip0">
<rect width="48" height="48" fill="white"/>
</clipPath>
</defs>
</svg>
