<svg width="48" height="48" viewBox="0 0 48 48" fill="none" xmlns="http://www.w3.org/2000/svg">
<path d="M42.8571 5.14285H37.7143V1.71432C37.7143 0.767511 36.9468 0 36 0C35.0532 0 34.2857 0.767511 34.2857 1.71432V5.14285H13.7142V1.71432C13.7142 0.767511 12.9467 0 12 0C11.0533 0 10.2857 0.767511 10.2857 1.71432V5.14285H5.14285C2.30253 5.14285 0 7.44539 0 10.2857V42.8571C0 45.6975 2.30253 48 5.14285 48H42.8571C45.6975 48 48 45.6975 48 42.8571V10.2857C48 7.44539 45.6975 5.14285 42.8571 5.14285ZM44.5714 42.8571C44.5714 43.804 43.8039 44.5715 42.857 44.5715H5.14285C4.19605 44.5715 3.42854 43.804 3.42854 42.8571V20.5714H44.5714V42.8571ZM44.5714 17.1429H3.42854V10.2857C3.42854 9.3389 4.19605 8.57139 5.14285 8.57139H10.2857V11.9999C10.2857 12.9467 11.0532 13.7142 12 13.7142C12.9468 13.7142 13.7143 12.9467 13.7143 11.9999V8.57139H34.2858V11.9999C34.2858 12.9467 35.0533 13.7142 36.0001 13.7142C36.9469 13.7142 37.7144 12.9467 37.7144 11.9999V8.57139H42.8572C43.8041 8.57139 44.5716 9.3389 44.5716 10.2857V17.1429H44.5714Z" fill="white"/>
<path d="M13.7142 24H10.2857C9.33889 24 8.57138 24.7675 8.57138 25.7143C8.57138 26.6611 9.33889 27.4286 10.2857 27.4286H13.7142C14.661 27.4286 15.4286 26.6611 15.4286 25.7143C15.4286 24.7675 14.661 24 13.7142 24Z" fill="white"/>
<path d="M25.7143 24H22.2857C21.3389 24 20.5714 24.7675 20.5714 25.7143C20.5714 26.6611 21.3389 27.4286 22.2857 27.4286H25.7143C26.6611 27.4286 27.4286 26.6611 27.4286 25.7143C27.4286 24.7675 26.6611 24 25.7143 24Z" fill="white"/>
<path d="M37.7143 24H34.2858C33.339 24 32.5714 24.7675 32.5714 25.7143C32.5714 26.6611 33.339 27.4286 34.2858 27.4286H37.7143C38.6611 27.4286 39.4286 26.6611 39.4286 25.7143C39.4285 24.7675 38.661 24 37.7143 24Z" fill="white"/>
<path d="M13.7142 30.8571H10.2857C9.33889 30.8571 8.57138 31.6246 8.57138 32.5714C8.57138 33.5182 9.33889 34.2858 10.2857 34.2858H13.7142C14.661 34.2858 15.4286 33.5182 15.4286 32.5714C15.4286 31.6246 14.661 30.8571 13.7142 30.8571Z" fill="white"/>
<path d="M25.7143 30.8571H22.2857C21.3389 30.8571 20.5714 31.6246 20.5714 32.5714C20.5714 33.5182 21.3389 34.2858 22.2857 34.2858H25.7143C26.6611 34.2858 27.4286 33.5182 27.4286 32.5714C27.4286 31.6246 26.6611 30.8571 25.7143 30.8571Z" fill="white"/>
<path d="M37.7143 30.8571H34.2858C33.339 30.8571 32.5714 31.6246 32.5714 32.5714C32.5714 33.5182 33.339 34.2858 34.2858 34.2858H37.7143C38.6611 34.2858 39.4286 33.5182 39.4286 32.5714C39.4285 31.6246 38.661 30.8571 37.7143 30.8571Z" fill="white"/>
<path d="M13.7142 37.7143H10.2857C9.33889 37.7143 8.57138 38.4818 8.57138 39.4286C8.57138 40.3754 9.33889 41.1428 10.2857 41.1428H13.7142C14.661 41.1428 15.4286 40.3753 15.4286 39.4285C15.4286 38.4817 14.661 37.7143 13.7142 37.7143Z" fill="white"/>
<path d="M25.7143 37.7143H22.2857C21.3389 37.7143 20.5714 38.4818 20.5714 39.4286C20.5714 40.3754 21.3389 41.1429 22.2857 41.1429H25.7143C26.6611 41.1429 27.4286 40.3754 27.4286 39.4286C27.4286 38.4818 26.6611 37.7143 25.7143 37.7143Z" fill="white"/>
<path d="M37.7143 37.7143H34.2858C33.339 37.7143 32.5714 38.4818 32.5714 39.4286C32.5714 40.3754 33.339 41.1429 34.2858 41.1429H37.7143C38.6611 41.1429 39.4286 40.3754 39.4286 39.4286C39.4286 38.4818 38.661 37.7143 37.7143 37.7143Z" fill="white"/>
</svg>
