<svg width="48" height="48" viewBox="0 0 48 48" fill="none" xmlns="http://www.w3.org/2000/svg">
<path d="M47.3986 27.9305C47.3986 27.1392 46.757 26.4976 45.9656 26.4976H43.0977V6.96001C43.0977 3.12226 39.9753 0 36.1376 0C32.2998 0 29.1776 3.12226 29.1776 6.96001V9.57227C29.1776 10.3636 29.8192 11.0052 30.6105 11.0052C31.4019 11.0052 32.0435 10.3636 32.0435 9.57227V6.96001C32.0435 4.70251 33.8801 2.86594 36.1376 2.86594C38.3951 2.86594 40.2317 4.70251 40.2317 6.96001V26.4975H2.03437C1.24302 26.4975 0.601395 27.1391 0.601395 27.9304C0.601395 34.3977 4.69181 39.9269 10.4212 42.0687C9.31904 43.2273 8.63738 44.816 8.63738 46.567C8.63738 47.3584 9.27901 48 10.0704 48C10.8617 48 11.5033 47.3584 11.5033 46.567C11.5033 44.6104 12.9963 43.0185 14.8315 43.0185C14.899 43.0185 33.1011 43.0185 33.1685 43.0185C35.0038 43.0185 36.4968 44.6104 36.4968 46.567C36.4968 47.3584 37.1385 48 37.9298 48C38.7212 48 39.3628 47.3584 39.3628 46.567C39.3628 44.8161 38.681 43.2274 37.579 42.0687C43.3083 39.927 47.3986 34.3977 47.3986 27.9305ZM32.3105 40.1526H15.6896C9.43473 40.1526 4.26234 35.4303 3.55087 29.3635H44.4492C43.7377 35.4303 38.5652 40.1526 32.3105 40.1526Z" fill="#1C3360"/>
<path d="M30.6106 13.4917C29.8192 13.4917 29.1776 14.1333 29.1776 14.9247V16.1666C29.1776 16.9579 29.8192 17.5995 30.6106 17.5995C31.4019 17.5995 32.0435 16.9579 32.0435 16.1666V14.9247C32.0434 14.1332 31.4019 13.4917 30.6106 13.4917Z" fill="#1C3360"/>
<path d="M30.6106 20.3699C29.8192 20.3699 29.1776 21.0116 29.1776 21.8029V23.0448C29.1776 23.8362 29.8192 24.4778 30.6106 24.4778C31.4019 24.4778 32.0435 23.8362 32.0435 23.0448V21.8029C32.0434 21.0115 31.4019 20.3699 30.6106 20.3699Z" fill="#1C3360"/>
</svg>
