<svg width="48" height="48" viewBox="0 0 48 48" fill="none" xmlns="http://www.w3.org/2000/svg">
<g clip-path="url(#clip0)">
<path d="M37.9086 12.6767L37.9084 12.6768L37.9177 12.6857C38.6756 13.4056 39.1409 14.479 39.1409 15.6409V38.9946C39.1409 40.1464 38.6827 41.1819 37.9142 41.9532C37.2869 42.5393 36.5126 42.9605 35.6736 43.1131L35.263 43.1877V43.605V44.5961C35.263 45.4072 34.9309 46.143 34.4184 46.6554L34.3753 46.6985C33.872 47.2018 33.1402 47.5 32.3591 47.5H32.2298C31.4186 47.5 30.6829 47.1679 30.1704 46.6554C29.658 46.143 29.3258 45.4072 29.3258 44.5961V43.6912V43.1912H28.8258H19.1741H18.6741V43.6912V44.5961C18.6741 45.4072 18.342 46.143 17.8296 46.6554C17.3171 47.1679 16.5814 47.5 15.7702 47.5H15.6409C14.8298 47.5 14.094 47.1679 13.5816 46.6554C13.0691 46.143 12.737 45.4072 12.737 44.5961V43.605V43.1845L12.3227 43.1124C11.4366 42.9583 10.6675 42.5349 10.0914 41.9588L10.0916 41.9587L10.0823 41.9499C9.32439 41.2299 8.85907 40.1566 8.85907 38.9946V15.5978C8.85907 14.4432 9.31956 13.4055 10.0914 12.6336L10.0916 12.6337L10.1004 12.6244C10.8204 11.8666 11.8937 11.4013 13.0557 11.4013H16.1149H16.6149V10.9013V2.92998C16.6149 2.2603 16.8387 1.65431 17.216 1.24271L17.2227 1.23539L17.2291 1.22782C17.6126 0.774559 18.1648 0.5 18.7864 0.5H29.2136C29.8352 0.5 30.3874 0.774559 30.7709 1.22782L30.7773 1.23539L30.784 1.24271C31.1613 1.65431 31.3851 2.2603 31.3851 2.92998V10.9443V11.4443H31.8851H34.9443C36.099 11.4443 37.1367 11.9048 37.9086 12.6767ZM30.2047 11.4013H30.7047V10.9013V2.92998C30.7047 2.47522 30.5375 1.99561 30.2135 1.67158C29.9867 1.44473 29.6515 1.22352 29.2136 1.22352H18.7864C18.4031 1.22352 18.0433 1.35881 17.767 1.69145C17.4558 2.01502 17.2953 2.48443 17.2953 2.92998V10.9443V11.4443H17.7953H19.7774H20.2774V10.9443V5.68761C20.2774 5.19741 20.3915 4.78458 20.5812 4.49997L20.5895 4.4875L20.5971 4.47456C20.8222 4.08861 21.1432 3.90395 21.5009 3.90395H26.4991C26.8568 3.90395 27.1778 4.08861 27.4029 4.47456L27.4105 4.4875L27.4188 4.49997C27.6085 4.78458 27.7226 5.19742 27.7226 5.68761V10.9013V11.4013H28.2226H30.2047ZM21.6302 4.58438H21.3211L21.1829 4.86077C21.0581 5.11039 21.0009 5.36072 21.0009 5.68761V10.9013V11.4013H21.5009H26.4991H26.9991V10.9013V5.64452C26.9991 5.38932 26.9523 5.05662 26.7859 4.80703L26.6374 4.58438H26.3698H21.6302ZM13.8743 43.2774H13.3743V43.7774V44.6822C13.3743 45.3019 13.6514 45.8503 14.0262 46.2305C14.4349 46.6898 15.0058 46.9057 15.5978 46.9057H15.7271C16.3468 46.9057 16.8952 46.6286 17.2754 46.2539C17.7347 45.8452 17.9506 45.2743 17.9506 44.6822V43.7774V43.2774H17.4506H13.8743ZM30.5494 43.2774H30.0494V43.7774V44.6822C30.0494 45.3019 30.3265 45.8503 30.7012 46.2305C31.1099 46.6898 31.6808 46.9057 32.2729 46.9057H32.4021C32.9601 46.9057 33.5199 46.6845 33.9191 46.2853L33.9512 46.2532C34.4099 45.8445 34.6257 45.2739 34.6257 44.6822V43.7774V43.2774H34.1257H30.5494ZM10.5408 41.4956C11.1544 42.1561 12.061 42.5539 13.0126 42.5539H18.3124H29.6876H34.9874C35.9502 42.5539 36.8033 42.1483 37.4453 41.5095C38.1058 40.8959 38.5036 39.9893 38.5036 39.0377V15.6409C38.5036 14.6747 38.0951 13.8188 37.4523 13.1761C36.8038 12.5275 35.9461 12.1248 34.9013 12.1248H30.9802H27.3178H20.596H16.9336H13.0126C12.0498 12.1248 11.1967 12.5303 10.5547 13.1691C9.89422 13.7828 9.49641 14.6893 9.49641 15.6409V39.0377C9.49641 40.0005 9.90199 40.8536 10.5408 41.4956Z" stroke="#1C3360"/>
</g>
<defs>
<clipPath id="clip0">
<rect width="48" height="48" fill="white"/>
</clipPath>
</defs>
</svg>
