<svg width="48" height="48" viewBox="0 0 48 48" fill="none" xmlns="http://www.w3.org/2000/svg">
<g clip-path="url(#clip0)">
<path d="M41.9527 5.68454H6.04734C2.71275 5.68454 0 8.39738 0 11.7319V25.3384C0 28.6729 2.71275 31.3857 6.04734 31.3857H41.9528C45.2873 31.3857 48.0001 28.673 48.0001 25.3384V11.7319C48 8.39738 45.2873 5.68454 41.9527 5.68454ZM37.3227 28.551H10.6773V28.1255C10.6773 26.3802 12.097 24.9604 13.8424 24.9604H34.1575C35.9029 24.9604 37.3226 26.3803 37.3226 28.1255V28.551H37.3227ZM45.1653 25.3384C45.1653 27.1099 43.7242 28.551 41.9527 28.551H40.1573V28.1255C40.1573 24.8172 37.4659 22.1257 34.1575 22.1257H13.8424C10.534 22.1257 7.84256 24.8172 7.84256 28.1255V28.551H6.04725C4.27575 28.551 2.83463 27.1099 2.83463 25.3384V11.7319C2.83463 9.96038 4.27575 8.51925 6.04725 8.51925H41.9527C43.7242 8.51925 45.1653 9.96038 45.1653 11.7319V25.3384Z" fill="#1C3360"/>
<path d="M40.2516 11.0705H38.444C37.6613 11.0705 37.0267 11.7051 37.0267 12.4878C37.0267 13.2705 37.6613 13.9051 38.444 13.9051H40.2516C41.0343 13.9051 41.6689 13.2705 41.6689 12.4878C41.669 11.7051 41.0344 11.0705 40.2516 11.0705Z" fill="#1C3360"/>
<path d="M33.4484 11.0705H31.6408C30.8581 11.0705 30.2235 11.7051 30.2235 12.4878C30.2235 13.2705 30.8581 13.9051 31.6408 13.9051H33.4484C34.2311 13.9051 34.8657 13.2705 34.8657 12.4878C34.8657 11.7051 34.2311 11.0705 33.4484 11.0705Z" fill="#1C3360"/>
<path d="M24 32.8172C23.2173 32.8172 22.5827 33.4518 22.5827 34.2345V40.8981C22.5827 41.6808 23.2173 42.3154 24 42.3154C24.7827 42.3154 25.4173 41.6808 25.4173 40.8981V34.2345C25.4173 33.4518 24.7827 32.8172 24 32.8172Z" fill="#1C3360"/>
<path d="M32.2203 39.4807C30.9045 39.4807 29.8342 38.4103 29.8342 37.0946V34.2345C29.8342 33.4518 29.1996 32.8172 28.4168 32.8172C27.6341 32.8172 26.9995 33.4518 26.9995 34.2345V37.0946C26.9995 39.9734 29.3416 42.3155 32.2204 42.3155C33.0031 42.3155 33.6377 41.6809 33.6377 40.8982C33.6376 40.1153 33.003 39.4807 32.2203 39.4807Z" fill="#1C3360"/>
<path d="M19.5832 32.8172C18.8004 32.8172 18.1658 33.4518 18.1658 34.2345V37.0946C18.1658 38.4104 17.0955 39.4807 15.7797 39.4807C14.997 39.4807 14.3624 40.1153 14.3624 40.8981C14.3624 41.6808 14.997 42.3154 15.7797 42.3154C18.6585 42.3154 21.0006 39.9733 21.0006 37.0945V34.2344C21.0006 33.4518 20.366 32.8172 19.5832 32.8172Z" fill="#1C3360"/>
</g>
<defs>
<clipPath id="clip0">
<rect width="48" height="48" fill="white"/>
</clipPath>
</defs>
</svg>
